<?xml version="1.0" standalone="no"?>
<!DOCTYPE svg PUBLIC "-//W3C//DTD SVG 20010904//EN"
 "http://www.w3.org/TR/2001/REC-SVG-20010904/DTD/svg10.dtd">
<svg version="1.0" xmlns="http://www.w3.org/2000/svg"
 width="240.000000pt" height="240.000000pt" viewBox="0 0 240.000000 240.000000"
 preserveAspectRatio="xMidYMid meet">

<g transform="translate(0.000000,240.000000) scale(0.100000,-0.100000)"
fill="#000000" stroke="none">
<path d="M0 1200 l0 -1200 1200 0 1200 0 0 1200 0 1200 -1200 0 -1200 0 0
-1200z m1306 559 l104 -82 0 -113 0 -114 -55 0 -55 0 0 85 0 84 -52 40 c-29
22 -57 36 -63 32 -5 -4 -29 -22 -52 -40 l-43 -33 0 -428 0 -428 48 -31 c27
-17 52 -31 55 -31 4 0 29 14 57 31 l50 31 0 173 0 174 -52 3 -53 3 0 55 0 55
108 3 107 3 0 -270 0 -269 -107 -66 c-58 -37 -112 -65 -119 -62 -7 3 -58 34
-114 70 l-100 65 0 479 c0 369 3 482 13 495 14 20 198 165 210 166 5 1 55 -36
113 -80z m369 -260 l175 -122 0 -54 0 -54 -62 3 c-54 3 -63 6 -66 23 -2 17
-89 85 -107 85 -3 0 -5 -35 -3 -77 l3 -78 118 -3 117 -3 0 -143 0 -144 -171
-101 c-94 -56 -175 -101 -180 -101 -5 0 -9 68 -9 150 l0 150 60 0 60 0 0 -46
c0 -25 3 -44 8 -42 4 2 28 14 55 28 l47 24 0 53 0 53 -115 0 -115 0 0 260 c0
143 2 260 5 260 3 0 84 -55 180 -121z m-775 -320 c0 -364 -2 -430 -14 -426 -8
3 -86 51 -175 107 l-161 102 2 196 3 196 165 128 c91 70 168 127 173 128 4 0
7 -194 7 -431z"/>
<path d="M723 1339 l-53 -40 0 -137 0 -137 53 -33 52 -32 3 105 c1 58 1 152 0
210 l-3 104 -52 -40z"/>
</g>
</svg>
